<svg xmlns="http://www.w3.org/2000/svg" viewBox="0 0 313 54" width="500" height="86">
	<style>
		tspan { white-space:pre }
		.shp0 { fill: #ffffff } 
		.shp1 { fill: #ff3333 } 
		.shp2 { fill: #ff0033 } 
	</style>
	<g id="Layer">
		<g id="Layer">
			<g id="Layer0_0_FILL">
				<path id="Layer" fill-rule="evenodd" class="shp0" d="M53.9 13.2C57.03 13.2 59.75 13.52 62.05 14.15C64.35 14.78 66.22 15.72 67.65 16.95C68.62 17.75 69.35 18.62 69.85 19.55C70.38 20.52 70.72 21.68 70.85 23.05C70.95 23.38 71 23.77 71 24.2C71 24.7 71 25.27 71 25.9L70.75 43.5C70.75 45.83 70.87 47.72 71.1 49.15C71.33 50.55 71.7 51.85 72.2 53.05L61.5 53.05C61.3 52.08 61.17 51.33 61.1 50.8C61.03 50.3 61 49.7 61 49L60.85 48.85C59.15 50.68 57.23 52.02 55.1 52.85C52.97 53.72 50.48 54.13 47.65 54.1C43.52 54.07 40.28 53.03 37.95 51C37.62 50.7 37.3 50.38 37 50.05C35.77 48.62 34.98 46.85 34.65 44.75C34.52 44.02 34.45 43.23 34.45 42.4C34.45 39.9 35.03 37.8 36.2 36.1C37.33 34.37 39.07 33.05 41.4 32.15C42.4 31.75 43.63 31.4 45.1 31.1C46.53 30.8 48.58 30.48 51.25 30.15C54.08 29.82 56.18 29.48 57.55 29.15C58.95 28.78 59.83 28.27 60.2 27.6C60.6 27 60.73 26.12 60.6 24.95C60.47 23.38 59.85 22.22 58.75 21.45C57.65 20.68 55.93 20.3 53.6 20.3C51.23 20.3 49.47 20.77 48.3 21.7C47.13 22.63 46.4 24.15 46.1 26.25L36.1 26.25C36.47 21.92 38.13 18.67 41.1 16.5C44.07 14.3 48.33 13.2 53.9 13.2ZM47.05 38C45.85 38.97 45.28 40.33 45.35 42.1C45.35 43.83 45.88 45.13 46.95 46C48.02 46.83 49.62 47.25 51.75 47.25C53.08 47.25 54.37 46.95 55.6 46.35C56.83 45.82 57.92 45.05 58.85 44.05C59.52 43.32 59.98 42.53 60.25 41.7C60.52 40.9 60.63 39.85 60.6 38.55L60.6 36.4C60.6 36 60.62 35.63 60.65 35.3C60.68 34.97 60.75 34.52 60.85 33.95C60.18 34.35 59.55 34.65 58.95 34.85C58.38 35.05 57.67 35.23 56.8 35.4C55.97 35.57 54.78 35.75 53.25 35.95C50.28 36.38 48.22 37.07 47.05 38ZM99.65 13.7L99.65 20.55C100.48 18.92 101.63 17.57 103.1 16.5C106.07 14.3 110.33 13.2 115.9 13.2C119.03 13.2 121.75 13.52 124.05 14.15C126.35 14.78 128.22 15.72 129.65 16.95C130.62 17.75 131.35 18.62 131.85 19.55C132.38 20.52 132.72 21.68 132.85 23.05C132.95 23.38 133 23.77 133 24.2C133 24.7 133 25.27 133 25.9L132.75 43.5C132.75 45.83 132.87 47.72 133.1 49.15C133.33 50.55 133.7 51.85 134.2 53.05L123.5 53.05C123.3 52.08 123.17 51.33 123.1 50.8C123.03 50.3 123 49.7 123 49L122.85 48.85C121.15 50.68 119.23 52.02 117.1 52.85C114.97 53.72 112.48 54.13 109.65 54.1C105.52 54.07 102.28 53.03 99.95 51C97.65 48.97 96.48 46.1 96.45 42.4C96.45 39.9 97.03 37.8 98.2 36.1C99.33 34.37 101.07 33.05 103.4 32.15C104.4 31.75 105.63 31.4 107.1 31.1C108.53 30.8 110.58 30.48 113.25 30.15C116.08 29.82 118.18 29.48 119.55 29.15C120.95 28.78 121.83 28.27 122.2 27.6C122.6 27 122.73 26.12 122.6 24.95C122.47 23.38 121.85 22.22 120.75 21.45C119.65 20.68 117.93 20.3 115.6 20.3C113.23 20.3 111.47 20.77 110.3 21.7C109.13 22.63 108.4 24.15 108.1 26.25L98.1 26.25C98.2 25.22 98.37 24.25 98.6 23.35C98.27 23.28 97.97 23.23 97.7 23.2C97.2 23.17 96.67 23.12 96.1 23.05C94.03 22.95 92.2 23.33 90.6 24.2C88.97 25.07 87.68 26.37 86.75 28.1C86.25 29.03 85.88 30.18 85.65 31.55C85.42 32.95 85.3 34.73 85.3 36.9L85.3 53.05L74.7 53.05L74.7 14.35L84.85 14.35L84.85 17.95C84.85 18.68 84.82 19.32 84.75 19.85C84.72 20.42 84.55 21.13 84.25 22L84.7 22.05C86.27 18.85 88.22 16.55 90.55 15.15C92.92 13.75 95.62 13.23 98.65 13.6C98.78 13.6 98.93 13.62 99.1 13.65C99.27 13.68 99.45 13.7 99.65 13.7ZM115.25 35.95C112.28 36.38 110.22 37.07 109.05 38C107.85 38.97 107.28 40.33 107.35 42.1C107.35 43.83 107.88 45.13 108.95 46C110.02 46.83 111.62 47.25 113.75 47.25C115.08 47.25 116.37 46.95 117.6 46.35C118.83 45.82 119.92 45.05 120.85 44.05C121.52 43.32 121.98 42.53 122.25 41.7C122.52 40.9 122.63 39.85 122.6 38.55L122.6 36.4C122.6 36 122.62 35.63 122.65 35.3C122.68 34.97 122.75 34.52 122.85 33.95C122.18 34.35 121.55 34.65 120.95 34.85C120.38 35.05 119.67 35.23 118.8 35.4C117.97 35.57 116.78 35.75 115.25 35.95ZM218.25 23.65C217.98 24.48 217.78 25.43 217.65 26.5L211.4 26.5C211.57 22.3 213.07 19.05 215.9 16.75C218.73 14.45 222.7 13.3 227.8 13.3C230.47 13.3 232.78 13.6 234.75 14.2C236.75 14.87 238.42 15.82 239.75 17.05C240.72 17.95 241.4 19.1 241.8 20.5C242.2 21.93 242.38 23.93 242.35 26.5C242.35 27.37 242.35 28.33 242.35 29.4C242.35 30.4 242.33 31.48 242.3 32.65L242.3 37.8C242.27 38.63 242.23 39.4 242.2 40.1C242.2 40.83 242.2 41.45 242.2 41.95C242.07 44.42 242.18 46.1 242.55 47C242.88 47.87 243.6 48.27 244.7 48.2C244.97 48.2 245.25 48.18 245.55 48.15C245.78 48.12 246.03 48.05 246.3 47.95L246.3 52.95C245.57 53.18 244.85 53.35 244.15 53.45C243.42 53.58 242.65 53.65 241.85 53.65C240.15 53.65 238.85 53.13 237.95 52.1C237.05 51.13 236.57 49.62 236.5 47.55L236.3 47.55C234.5 49.72 232.47 51.33 230.2 52.4C227.93 53.5 225.43 54.05 222.7 54.05C218.43 53.98 215.17 52.9 212.9 50.8C210.63 48.73 209.62 45.87 209.85 42.2C210.08 39.83 210.82 37.83 212.05 36.2C213.32 34.6 215.13 33.37 217.5 32.5C218.47 32.13 219.48 31.83 220.55 31.6C221.58 31.37 222.62 31.22 223.65 31.15L229.25 30.45C231.92 30.15 233.77 29.55 234.8 28.65C235.8 27.75 236.18 26.37 235.95 24.5C235.82 22.53 234.98 21.05 233.45 20.05C231.92 19.05 229.7 18.55 226.8 18.55C225.07 18.55 223.58 18.8 222.35 19.3C221.08 19.77 220.07 20.52 219.3 21.55C218.87 22.15 218.52 22.85 218.25 23.65ZM217.45 39C216.92 39.87 216.6 40.93 216.5 42.2C216.43 44.3 217.07 45.97 218.4 47.2C219.73 48.43 221.62 49.05 224.05 49.05C226.42 49.05 228.5 48.63 230.3 47.8C232.07 46.97 233.57 45.68 234.8 43.95C235.2 43.38 235.5 42.67 235.7 41.8C235.87 40.9 235.95 39.88 235.95 38.75L235.95 35.85C235.95 35.35 236 34.83 236.1 34.3C236.17 33.77 236.27 33.25 236.4 32.75L236.15 32.6C235.28 33.3 234.32 33.78 233.25 34.05C232.75 34.18 232.03 34.33 231.1 34.5C230.13 34.67 228.95 34.85 227.55 35.05C225.68 35.25 224.1 35.5 222.8 35.8C221.5 36.13 220.47 36.5 219.7 36.9C218.73 37.4 217.98 38.1 217.45 39ZM169.6 28L169.6 53.05L163 53.05L163 28.8C163 27.17 162.88 25.75 162.65 24.55C162.42 23.38 162.08 22.45 161.65 21.75C160.92 20.78 159.98 20.05 158.85 19.55C157.68 19.08 156.33 18.85 154.8 18.85C152.33 18.85 150.28 19.37 148.65 20.4C147.02 21.4 145.78 22.92 144.95 24.95C144.52 25.88 144.22 27.18 144.05 28.85C143.82 30.48 143.7 32.52 143.7 34.95L143.7 53.05L137.3 53.05L137.3 -0.3L143.7 -0.3L143.7 9.75C143.7 11.32 143.67 12.98 143.6 14.75C143.53 16.48 143.45 18.28 143.35 20.15L143.65 20.15C145.22 17.85 147.08 16.15 149.25 15.05C151.45 13.92 153.95 13.35 156.75 13.35C162.12 13.35 165.88 15.27 168.05 19.1C168.58 20.13 168.97 21.37 169.2 22.8C169.47 24.3 169.6 26.03 169.6 28ZM183.6 14.65C185.73 13.68 188.1 13.2 190.7 13.2C194.37 13.23 197.58 14.18 200.35 16.05C203.12 17.92 205.2 20.53 206.6 23.9C207.13 25.37 207.53 27.05 207.8 28.95C208.1 30.85 208.25 32.98 208.25 35.35L180.85 35.35C180.55 35.35 180.27 35.33 180 35.3C179.7 35.23 179.4 35.15 179.1 35.05C179.23 39.72 180.32 43.23 182.35 45.6C184.32 47.97 187.2 49.15 191 49.15C193.8 49.18 196.05 48.55 197.75 47.25C199.42 45.95 200.7 43.8 201.6 40.8L207.85 40.8C206.82 45.33 204.88 48.73 202.05 51C199.25 53.23 195.52 54.35 190.85 54.35C185.08 54.28 180.62 52.45 177.45 48.85C174.28 45.22 172.67 40.08 172.6 33.45C172.6 30.55 173.05 27.9 173.95 25.5C174.78 23.1 176.07 20.92 177.8 18.95C179.5 17.05 181.43 15.62 183.6 14.65ZM199.1 30.25C199.53 30.25 199.97 30.27 200.4 30.3C200.87 30.37 201.32 30.45 201.75 30.55C201.42 26.72 200.3 23.77 198.4 21.7C196.5 19.57 193.95 18.5 190.75 18.5C187.42 18.5 184.78 19.5 182.85 21.5C180.92 23.5 179.68 26.52 179.15 30.55C179.75 30.45 180.33 30.37 180.9 30.3C181.47 30.27 181.98 30.25 182.45 30.25L199.1 30.25ZM254.3 53.05L247.9 53.05L247.9 -0.3L254.3 -0.3L254.3 53.05ZM267.35 14.55C267.58 14.45 267.85 14.38 268.15 14.35C268.45 14.28 268.78 14.25 269.15 14.25L275.15 14.25L275.15 19.45L269.15 19.45C268.78 19.45 268.45 19.43 268.15 19.4C267.85 19.37 267.58 19.3 267.35 19.2C267.42 19.47 267.47 19.77 267.5 20.1C267.53 20.37 267.55 20.68 267.55 21.05L267.55 42.05C267.55 43.38 267.62 44.47 267.75 45.3C267.88 46.1 268.08 46.63 268.35 46.9C268.65 47.17 269.15 47.38 269.85 47.55C270.55 47.72 271.47 47.8 272.6 47.8C272.97 47.8 273.37 47.78 273.8 47.75C274.2 47.68 274.65 47.62 275.15 47.55L275.15 52.95C274.48 53.08 273.75 53.18 272.95 53.25C272.18 53.32 271.35 53.35 270.45 53.35C266.05 53.35 263.25 52.15 262.05 49.75C261.78 49.25 261.58 48.58 261.45 47.75C261.32 46.95 261.25 46 261.25 44.9L261.15 21.05C261.15 20.68 261.18 20.37 261.25 20.1C261.28 19.77 261.35 19.47 261.45 19.2C260.92 19.37 260.28 19.45 259.55 19.45L254.6 19.45L254.6 14.25L259.55 14.25C259.92 14.25 260.25 14.28 260.55 14.35C260.92 14.38 261.22 14.45 261.45 14.55C261.35 14.32 261.28 14.03 261.25 13.7C261.18 13.43 261.15 13.12 261.15 12.75L261.15 2.8L267.55 2.8L267.55 12.75C267.55 13.12 267.53 13.43 267.5 13.7C267.47 14.03 267.42 14.32 267.35 14.55ZM282.65 9.75C282.65 11.32 282.62 12.98 282.55 14.75C282.48 16.48 282.4 18.28 282.3 20.15L282.6 20.15C284.17 17.85 286.03 16.15 288.2 15.05C290.4 13.92 292.9 13.35 295.7 13.35C301.07 13.35 304.83 15.27 307 19.1C307.53 20.13 307.92 21.37 308.15 22.8C308.42 24.3 308.55 26.03 308.55 28L308.55 53.05L301.95 53.05L301.95 28.8C301.95 27.17 301.83 25.75 301.6 24.55C301.37 23.38 301.03 22.45 300.6 21.75C299.87 20.78 298.93 20.05 297.8 19.55C296.63 19.08 295.28 18.85 293.75 18.85C291.28 18.85 289.23 19.37 287.6 20.4C285.97 21.4 284.73 22.92 283.9 24.95C283.47 25.88 283.17 27.18 283 28.85C282.77 30.48 282.65 32.52 282.65 34.95L282.65 53.05L276.25 53.05L276.25 -0.3L282.65 -0.3L282.65 9.75Z" />
				<path id="Layer" class="shp1" d="M2.95 14.35L2.95 22.6L12.2 22.6C13.7 22.6 14.93 22.6 15.9 22.6C16.83 22.57 17.75 22.52 18.65 22.45C19.52 22.42 20.6 22.33 21.9 22.2L22.05 22.45C20.78 23.65 19.77 24.65 19 25.45C18.2 26.28 17.4 27.12 16.6 27.95C15.77 28.82 14.73 29.98 13.5 31.45L1.5 44.9L1.5 53.05L37 53.05L37 50.05C35.77 48.62 34.98 46.85 34.65 44.75L26.4 44.8C24.63 44.8 23.22 44.8 22.15 44.8C21.08 44.83 20.07 44.87 19.1 44.9C18.1 44.93 16.82 44.98 15.25 45.05L15.25 44.9C16.42 43.63 17.4 42.6 18.2 41.8C18.97 40.97 19.75 40.1 20.55 39.2C21.35 38.37 22.38 37.25 23.65 35.85L35.7 22.1L35.7 14.35L2.95 14.35Z" />
				<path id="Layer" fill-rule="evenodd" class="shp2" d="M353.8 -46.25C354.27 -44.62 354.5 -42.93 354.5 -41.2C354.5 -38.6 354.03 -36.15 353.1 -33.85C352.13 -31.58 350.73 -29.53 348.9 -27.7L320.8 0.4L292.7 -27.7C290.87 -29.53 289.48 -31.58 288.55 -33.85C287.58 -36.15 287.1 -38.6 287.1 -41.2C287.1 -42.93 287.33 -44.62 287.8 -46.25C288.27 -47.88 288.9 -49.4 289.7 -50.8C290.53 -52.23 291.53 -53.53 292.7 -54.7C293.87 -55.87 295.15 -56.87 296.55 -57.7C297.95 -58.5 299.48 -59.13 301.15 -59.6C302.75 -60.07 304.43 -60.3 306.2 -60.3C307.7 -60.3 309.12 -60.13 310.45 -59.8C311.78 -59.53 313.05 -59.12 314.25 -58.55C315.42 -57.98 316.55 -57.27 317.65 -56.4C318.72 -55.6 319.77 -54.67 320.8 -53.6C321.83 -54.67 322.9 -55.6 324 -56.4C325.07 -57.27 326.2 -57.98 327.4 -58.55C328.57 -59.12 329.82 -59.55 331.15 -59.85C332.48 -60.15 333.9 -60.3 335.4 -60.3C337.13 -60.3 338.82 -60.07 340.45 -59.6C342.08 -59.13 343.6 -58.48 345 -57.65C346.43 -56.82 347.73 -55.82 348.9 -54.65C350.03 -53.52 351.03 -52.23 351.9 -50.8C352.7 -49.4 353.33 -47.88 353.8 -46.25ZM345.9 -51.7C344.57 -53.03 343 -54.1 341.2 -54.9C339.37 -55.67 337.43 -56.05 335.4 -56.05C333.8 -56.05 332.37 -55.87 331.1 -55.5C329.87 -55.1 328.72 -54.55 327.65 -53.85C326.58 -53.18 325.58 -52.4 324.65 -51.5C323.68 -50.6 322.72 -49.65 321.75 -48.65L320.8 -47.65L319.95 -48.55C318.95 -49.58 317.97 -50.55 317 -51.45C316.07 -52.35 315.07 -53.15 314 -53.85C312.93 -54.52 311.77 -55.05 310.5 -55.45C309.23 -55.85 307.8 -56.05 306.2 -56.05C304.17 -56.05 302.25 -55.67 300.45 -54.9C298.62 -54.1 297.03 -53.03 295.7 -51.7C294.33 -50.37 293.27 -48.78 292.5 -46.95C291.7 -45.15 291.3 -43.23 291.3 -41.2C291.3 -39.2 291.68 -37.28 292.45 -35.45C293.18 -33.68 294.27 -32.08 295.7 -30.65L320.8 -5.55L345.9 -30.65C347.3 -32.08 348.38 -33.68 349.15 -35.45C349.88 -37.28 350.25 -39.2 350.25 -41.2C350.25 -43.23 349.87 -45.15 349.1 -46.95C348.3 -48.78 347.23 -50.37 345.9 -51.7Z" />
			</g>
		</g>
	</g>
</svg>